<svg id="visual" viewBox="0 0 900 600" width="900" height="600" xmlns="http://www.w3.org/2000/svg" xmlns:xlink="http://www.w3.org/1999/xlink" version="1.1"><rect x="0" y="0" width="900" height="600" fill="#ffffff"></rect><defs><linearGradient id="grad1_0" x1="33.3%" y1="0%" x2="100%" y2="100%"><stop offset="20%" stop-color="#ffffff" stop-opacity="1"></stop><stop offset="80%" stop-color="#ffffff" stop-opacity="1"></stop></linearGradient></defs><defs><linearGradient id="grad2_0" x1="0%" y1="0%" x2="66.7%" y2="100%"><stop offset="20%" stop-color="#ffffff" stop-opacity="1"></stop><stop offset="80%" stop-color="#ffffff" stop-opacity="1"></stop></linearGradient></defs><g transform="translate(900, 0)"><path d="M0 243.4C-43.3 237.4 -86.6 231.5 -121.7 210.8C-156.8 190.1 -183.7 154.6 -202.6 117C-221.6 79.4 -232.5 39.7 -243.4 0L0 0Z" fill="#000000"></path></g><g transform="translate(0, 600)"><path d="M0 -243.4C43.6 -237.6 87.3 -231.9 121.7 -210.8C156.1 -189.7 181.3 -153.2 200.1 -115.5C218.8 -77.8 231.1 -38.9 243.4 0L0 0Z" fill="#000000"></path></g></svg>