<svg id="visual" viewBox="0 0 900 600" width="900" height="600" xmlns="http://www.w3.org/2000/svg" xmlns:xlink="http://www.w3.org/1999/xlink" version="1.1"><rect x="0" y="0" width="900" height="600" fill="#001122"></rect><path d="M0 412L21.5 405C43 398 86 384 128.8 378.2C171.7 372.3 214.3 374.7 257.2 385C300 395.3 343 413.7 385.8 409.7C428.7 405.7 471.3 379.3 514.2 373.7C557 368 600 383 642.8 395C685.7 407 728.3 416 771.2 412.7C814 409.3 857 393.7 878.5 385.8L900 378L900 601L878.5 601C857 601 814 601 771.2 601C728.3 601 685.7 601 642.8 601C600 601 557 601 514.2 601C471.3 601 428.7 601 385.8 601C343 601 300 601 257.2 601C214.3 601 171.7 601 128.8 601C86 601 43 601 21.5 601L0 601Z" fill="#867bcf"></path><path d="M0 426L21.5 431C43 436 86 446 128.8 441.5C171.7 437 214.3 418 257.2 416.2C300 414.3 343 429.7 385.8 434.7C428.7 439.7 471.3 434.3 514.2 427.8C557 421.3 600 413.7 642.8 421.7C685.7 429.7 728.3 453.3 771.2 453.8C814 454.3 857 431.7 878.5 420.3L900 409L900 601L878.5 601C857 601 814 601 771.2 601C728.3 601 685.7 601 642.8 601C600 601 557 601 514.2 601C471.3 601 428.7 601 385.8 601C343 601 300 601 257.2 601C214.3 601 171.7 601 128.8 601C86 601 43 601 21.5 601L0 601Z" fill="#6c6ebf"></path><path d="M0 465L21.5 467.8C43 470.7 86 476.3 128.8 483.3C171.7 490.3 214.3 498.7 257.2 498.2C300 497.7 343 488.3 385.8 487.2C428.7 486 471.3 493 514.2 497.8C557 502.7 600 505.3 642.8 500.2C685.7 495 728.3 482 771.2 477.7C814 473.3 857 477.7 878.5 479.8L900 482L900 601L878.5 601C857 601 814 601 771.2 601C728.3 601 685.7 601 642.8 601C600 601 557 601 514.2 601C471.3 601 428.7 601 385.8 601C343 601 300 601 257.2 601C214.3 601 171.7 601 128.8 601C86 601 43 601 21.5 601L0 601Z" fill="#5161af"></path><path d="M0 529L21.5 525C43 521 86 513 128.8 508C171.7 503 214.3 501 257.2 500.2C300 499.3 343 499.7 385.8 501.8C428.7 504 471.3 508 514.2 508.8C557 509.7 600 507.3 642.8 502.2C685.7 497 728.3 489 771.2 487.5C814 486 857 491 878.5 493.5L900 496L900 601L878.5 601C857 601 814 601 771.2 601C728.3 601 685.7 601 642.8 601C600 601 557 601 514.2 601C471.3 601 428.7 601 385.8 601C343 601 300 601 257.2 601C214.3 601 171.7 601 128.8 601C86 601 43 601 21.5 601L0 601Z" fill="#33549f"></path><path d="M0 573L21.5 571.2C43 569.3 86 565.7 128.8 563.8C171.7 562 214.3 562 257.2 558.2C300 554.3 343 546.7 385.8 547.5C428.7 548.3 471.3 557.7 514.2 557.5C557 557.3 600 547.7 642.8 542.3C685.7 537 728.3 536 771.2 540.7C814 545.3 857 555.7 878.5 560.8L900 566L900 601L878.5 601C857 601 814 601 771.2 601C728.3 601 685.7 601 642.8 601C600 601 557 601 514.2 601C471.3 601 428.7 601 385.8 601C343 601 300 601 257.2 601C214.3 601 171.7 601 128.8 601C86 601 43 601 21.5 601L0 601Z" fill="#00488f"></path></svg>