<svg id="visual" viewBox="0 0 900 600" width="900" height="600" xmlns="http://www.w3.org/2000/svg" xmlns:xlink="http://www.w3.org/1999/xlink" version="1.1"><path d="M0 67L25 66C50 65 100 63 150 66C200 69 250 77 300 81C350 85 400 85 450 84C500 83 550 81 600 83C650 85 700 91 750 90C800 89 850 81 875 77L900 73L900 0L875 0C850 0 800 0 750 0C700 0 650 0 600 0C550 0 500 0 450 0C400 0 350 0 300 0C250 0 200 0 150 0C100 0 50 0 25 0L0 0Z" fill="#8586a7"></path><path d="M0 97L25 97C50 97 100 97 150 98C200 99 250 101 300 105C350 109 400 115 450 115C500 115 550 109 600 110C650 111 700 119 750 120C800 121 850 115 875 112L900 109L900 71L875 75C850 79 800 87 750 88C700 89 650 83 600 81C550 79 500 81 450 82C400 83 350 83 300 79C250 75 200 67 150 64C100 61 50 63 25 64L0 65Z" fill="#8c8dae"></path><path d="M0 121L25 121C50 121 100 121 150 124C200 127 250 133 300 139C350 145 400 151 450 152C500 153 550 149 600 148C650 147 700 149 750 147C800 145 850 139 875 136L900 133L900 107L875 110C850 113 800 119 750 118C700 117 650 109 600 108C550 107 500 113 450 113C400 113 350 107 300 103C250 99 200 97 150 96C100 95 50 95 25 95L0 95Z" fill="#9495b4"></path><path d="M0 157L25 159C50 161 100 165 150 170C200 175 250 181 300 184C350 187 400 187 450 186C500 185 550 183 600 185C650 187 700 193 750 191C800 189 850 179 875 174L900 169L900 131L875 134C850 137 800 143 750 145C700 147 650 145 600 146C550 147 500 151 450 150C400 149 350 143 300 137C250 131 200 125 150 122C100 119 50 119 25 119L0 119Z" fill="#9b9cbb"></path><path d="M0 205L25 207C50 209 100 213 150 216C200 219 250 221 300 223C350 225 400 227 450 228C500 229 550 229 600 233C650 237 700 245 750 243C800 241 850 229 875 223L900 217L900 167L875 172C850 177 800 187 750 189C700 191 650 185 600 183C550 181 500 183 450 184C400 185 350 185 300 182C250 179 200 173 150 168C100 163 50 159 25 157L0 155Z" fill="#a2a3c2"></path><path d="M0 229L25 233C50 237 100 245 150 249C200 253 250 253 300 255C350 257 400 261 450 263C500 265 550 265 600 267C650 269 700 273 750 270C800 267 850 257 875 252L900 247L900 215L875 221C850 227 800 239 750 241C700 243 650 235 600 231C550 227 500 227 450 226C400 225 350 223 300 221C250 219 200 217 150 214C100 211 50 207 25 205L0 203Z" fill="#a9aac7"></path><path d="M0 361L25 364C50 367 100 373 150 373C200 373 250 367 300 364C350 361 400 361 450 362C500 363 550 365 600 373C650 381 700 395 750 399C800 403 850 397 875 394L900 391L900 245L875 250C850 255 800 265 750 268C700 271 650 267 600 265C550 263 500 263 450 261C400 259 350 255 300 253C250 251 200 251 150 247C100 243 50 235 25 231L0 227Z" fill="#afb0cb"></path><path d="M0 409L25 416C50 423 100 437 150 442C200 447 250 443 300 437C350 431 400 423 450 418C500 413 550 411 600 422C650 433 700 457 750 463C800 469 850 457 875 451L900 445L900 389L875 392C850 395 800 401 750 397C700 393 650 379 600 371C550 363 500 361 450 360C400 359 350 359 300 362C250 365 200 371 150 371C100 371 50 365 25 362L0 359Z" fill="#b5b6cf"></path><path d="M0 559L25 559C50 559 100 559 150 561C200 563 250 567 300 567C350 567 400 563 450 564C500 565 550 571 600 573C650 575 700 573 750 573C800 573 850 575 875 576L900 577L900 443L875 449C850 455 800 467 750 461C700 455 650 431 600 420C550 409 500 411 450 416C400 421 350 429 300 435C250 441 200 445 150 440C100 435 50 421 25 414L0 407Z" fill="#bbbcd3"></path><path d="M0 601L25 601C50 601 100 601 150 601C200 601 250 601 300 601C350 601 400 601 450 601C500 601 550 601 600 601C650 601 700 601 750 601C800 601 850 601 875 601L900 601L900 575L875 574C850 573 800 571 750 571C700 571 650 573 600 571C550 569 500 563 450 562C400 561 350 565 300 565C250 565 200 561 150 559C100 557 50 557 25 557L0 557Z" fill="#c1c2d7"></path></svg>